<svg width="90" height="30" viewBox="0 0 90 30" fill="none" xmlns="http://www.w3.org/2000/svg">
<g clip-path="url(#clip0_9472_20652)">
<path d="M24.5052 7.18973C23.9447 5.67518 22.9331 4.4458 21.9528 3.53116C19.867 1.71074 17.2662 0.473975 14.3595 0.110482C11.5851 -0.238235 8.90033 0.252333 6.53711 1.38714C7.73935 1.28075 8.97004 1.29996 10.215 1.45511C16.8266 2.28405 22.1563 6.76418 24.5607 12.716C24.9164 11.8649 25.4912 9.85535 24.5052 7.19121V7.18973Z" fill="#7AD44B"/>
<path d="M0.406513 22.1376C0.887408 23.6817 1.83497 24.9642 2.76688 25.9321C4.75591 27.8663 7.28986 29.2449 10.1738 29.7694C12.9269 30.2703 15.633 29.9305 18.0517 28.9287C16.8452 28.9686 15.6173 28.8814 14.3824 28.6568C7.8234 27.4614 2.73131 22.6946 0.635578 16.6172C0.235781 17.4476 -0.440034 19.4217 0.406513 22.1376Z" fill="#FED40F"/>
<path d="M12.9009 9.34781C11.1096 9.46307 9.50329 10.8964 9.13621 12.7153C8.9228 13.7733 8.88154 14.8874 8.89719 15.9734C8.96548 20.6486 12.4214 21.3726 15.5657 20.6013C15.7862 20.5467 16.0807 20.2038 16.0978 19.9763C16.1675 19.0572 16.1419 18.1293 16.1519 17.1009C14.9724 17.0876 13.9011 17.0757 12.7259 17.0624C12.7315 16.4847 12.7358 16.0089 12.7415 15.5331C12.7624 13.9993 13.5217 13.2408 15.0194 13.2576C15.6781 13.265 16.3368 13.2724 16.9984 13.2797C19.686 13.3211 20.0574 15.4016 20.0944 16.263C20.0816 17.6018 20.0673 18.942 20.0545 20.2807C20.0175 23.9954 19.962 24.2436 16.4862 24.8583C16.4564 24.8642 12.7216 25.1997 10.9118 25.3592C13.0958 26.9255 16.3183 27.8328 18.969 27.6052C21.6808 27.3718 23.8177 25.5587 24.3214 22.7793C25.6417 15.4843 20.3704 8.86611 12.898 9.34486L12.9009 9.34781ZM10.4693 5.1839C11.6133 4.94009 12.8013 4.91497 14.0946 4.77608C11.8693 3.4344 9.59434 2.55374 7.08743 2.55079C3.77807 2.54636 1.4049 4.37417 0.815869 7.45499C-0.0463275 11.9617 1.8801 15.6218 4.07116 18.9922C4.07685 16.959 3.95449 14.8091 4.11669 12.6813C4.42828 8.61196 6.69759 5.98624 10.4708 5.1839H10.4693Z" fill="#16589F"/>
<path d="M35.3686 10.5499C35.9121 10.5499 36.632 10.2825 36.8625 10.0564V8.98513H35.4639C35.1239 8.98513 34.8393 8.68961 34.8393 8.33646V7.51934C34.8393 7.16619 35.1239 6.87067 35.4639 6.87067H38.2739C38.6139 6.87067 38.8985 7.16619 38.8985 7.51934V10.8469C38.8985 11.1705 38.7761 11.4114 38.5314 11.5946C37.6763 12.258 36.4129 12.6659 35.3401 12.6659C33.7381 12.6659 32.4889 12.2004 31.5926 11.2843C30.6962 10.3682 30.248 9.12698 30.248 7.56219C30.248 6.10969 30.682 4.88327 31.5655 3.90953C32.4476 2.93726 33.6157 2.45703 35.0684 2.45703C36.1141 2.45703 36.9834 2.65503 37.6621 3.03478C37.9196 3.18993 38.042 3.38793 38.042 3.6406C38.042 3.7529 38.0149 3.8519 37.9609 3.9509L37.5938 4.62765C37.4586 4.86702 37.268 4.99409 37.0233 4.99409C36.9151 4.99409 36.8056 4.96602 36.6974 4.90987C36.2493 4.6838 35.7883 4.5715 35.3259 4.5715C33.6826 4.5715 32.5558 5.60139 32.5558 7.56071C32.5558 9.37965 33.6698 10.5499 35.3657 10.5499H35.3686Z" fill="#16589F"/>
<path d="M42.9714 6.25202V11.8507C42.9714 12.2038 42.6868 12.4994 42.3468 12.4994H41.4234C41.0834 12.4994 40.7988 12.2038 40.7988 11.8507V3.27758C40.7988 2.92443 41.0834 2.62891 41.4234 2.62891H42.5645C42.849 2.62891 43.0809 2.75598 43.2702 3.02343L45.9179 6.78839L48.4163 3.03821C48.5927 2.77076 48.8104 2.62891 49.095 2.62891H50.1137C50.4523 2.62891 50.7383 2.92443 50.7383 3.27758V11.8507C50.7383 12.2038 50.4537 12.4994 50.1137 12.4994H49.1903C48.8503 12.4994 48.5657 12.2038 48.5657 11.8507V6.21064L46.5966 9.08756C46.1214 9.75101 45.4157 9.75101 44.9405 9.08756L42.9714 6.25349V6.25202Z" fill="#16589F"/>
<path d="M53.9148 3.90953C54.8509 2.93726 56.0603 2.45703 57.5528 2.45703C59.0453 2.45703 60.2418 2.92248 61.1922 3.85338C62.1284 4.78427 62.6036 6.02547 62.6036 7.56219C62.6036 9.09891 62.1284 10.2692 61.178 11.2282C60.2133 12.1871 59.0054 12.6659 57.5528 12.6659C56.1001 12.6659 54.8652 12.2004 53.9276 11.2695C52.9772 10.3386 52.502 9.09743 52.502 7.56071C52.502 6.10822 52.9772 4.8818 53.9133 3.90805L53.9148 3.90953ZM55.6121 9.69143C56.1414 10.2692 56.793 10.5514 57.5542 10.5514C58.4235 10.5514 59.1022 10.2692 59.5774 9.70473C60.0526 9.15506 60.2973 8.43546 60.2973 7.56219C60.2973 6.68892 60.0398 5.95454 59.5091 5.40487C58.9784 4.8552 58.3282 4.57297 57.5542 4.57297C56.7802 4.57297 56.1016 4.84042 55.5851 5.39157C55.0686 5.94125 54.8111 6.67414 54.8111 7.56367C54.8111 8.45319 55.0829 9.11516 55.6121 9.69291V9.69143Z" fill="#16589F"/>
<path d="M72.0245 2.62891C72.3646 2.62891 72.6491 2.92443 72.6491 3.27758V11.8507C72.6491 12.2038 72.3646 12.4994 72.0245 12.4994H71.3857C71.0599 12.4994 70.8024 12.3723 70.6117 12.1048L66.4032 6.57709V11.8507C66.4032 12.2038 66.1186 12.4994 65.7786 12.4994H64.9918C64.6517 12.4994 64.3672 12.2038 64.3672 11.8507V3.27758C64.3672 2.92443 64.6517 2.62891 64.9918 2.62891H65.6306C65.9564 2.62891 66.2139 2.75598 66.4046 3.02343L70.6131 8.57926V3.27758C70.6131 2.92443 70.8977 2.62891 71.2377 2.62891H72.0259H72.0245Z" fill="#16589F"/>
<path d="M80.8625 11.8507C80.8625 12.2038 80.578 12.4994 80.238 12.4994H75.7164C75.3764 12.4994 75.0918 12.2038 75.0918 11.8507V3.27758C75.0918 2.92443 75.3764 2.62891 75.7164 2.62891H80.1014C80.4414 2.62891 80.726 2.92443 80.726 3.27758V4.0947C80.726 4.44785 80.4414 4.74337 80.1014 4.74337H77.2644V6.47809H79.6945C80.0345 6.47809 80.3191 6.77361 80.3191 7.12676V7.94536C80.3191 8.29851 80.0345 8.59403 79.6945 8.59403H77.2644V10.3849H80.238C80.578 10.3849 80.8625 10.6804 80.8625 11.0336V11.8522V11.8507Z" fill="#16589F"/>
<path d="M86.1589 6.36189L87.9373 3.06237C88.0867 2.76685 88.3172 2.625 88.643 2.625H89.3217C89.7016 2.625 90.0003 2.9486 90.0003 3.32982C90.0003 3.4569 89.9733 3.58397 89.905 3.68297L87.1491 8.47783V11.8483C87.1491 12.2014 86.8646 12.4969 86.5245 12.4969H85.6011C85.2611 12.4969 84.9765 12.2014 84.9765 11.8483V8.47783L82.2477 3.68297C82.1794 3.58397 82.1523 3.4569 82.1523 3.32982C82.1523 2.9486 82.4511 2.625 82.831 2.625H83.6462C83.9721 2.625 84.2026 2.76537 84.3519 3.06237L86.1574 6.36189H86.1589Z" fill="#16589F"/>
<path d="M33.3176 27.5516C32.9776 27.5516 32.693 27.2561 32.693 26.903V19.7956H30.4664C30.1264 19.7956 29.8418 19.5001 29.8418 19.147V18.3284C29.8418 17.9752 30.1264 17.6797 30.4664 17.6797H37.0922C37.4323 17.6797 37.7168 17.9752 37.7168 18.3284V19.147C37.7168 19.5001 37.4323 19.7956 37.0922 19.7956H34.8656V26.903C34.8656 27.2561 34.581 27.5516 34.241 27.5516H33.3176Z" fill="#16589F"/>
<path d="M42.0478 24.0962H41.2468V26.9022C41.2468 27.2554 40.9622 27.5509 40.6222 27.5509H39.6988C39.3588 27.5509 39.0742 27.2554 39.0742 26.9022V18.3291C39.0742 17.9759 39.3588 17.6804 39.6988 17.6804C40.9338 17.6656 41.8031 17.6523 42.3053 17.6523C44.7624 17.6523 45.8224 18.8507 45.8224 20.8115C45.8224 22.1517 45.2931 23.1107 44.2204 23.6603L46.3118 26.5934C46.3929 26.7057 46.4342 26.8195 46.4342 26.9465C46.4342 27.2716 46.1767 27.5524 45.8366 27.5524H44.8322C44.5063 27.5524 44.2616 27.412 44.0852 27.1431L42.0492 24.0977L42.0478 24.0962ZM41.2468 21.9818H42.035C43.0267 21.9818 43.5147 21.6005 43.5147 20.8396C43.5147 20.12 43.0807 19.7683 42.1972 19.7683C42.1559 19.7683 41.8443 19.7831 41.2468 19.7964V21.9818Z" fill="#16589F"/>
<path d="M53.6427 25.4795H49.8824L49.272 27.0871C49.1496 27.3974 48.932 27.5526 48.6204 27.5526H47.7923C47.4665 27.5526 47.209 27.2704 47.209 26.9468C47.209 26.8625 47.2218 26.7768 47.2502 26.7074L50.672 18.149C50.8072 17.8387 51.0248 17.6836 51.3379 17.6836H52.3295C52.6411 17.6836 52.8588 17.8387 52.9954 18.149L56.4171 26.7074C56.4442 26.7783 56.4584 26.8625 56.4584 26.9468C56.4584 27.2718 56.2009 27.5526 55.8751 27.5526H54.9104C54.5988 27.5526 54.3812 27.3974 54.2588 27.0871L53.6484 25.4795H53.6427ZM51.769 20.5723L50.6962 23.365H52.8275L51.769 20.5723Z" fill="#16589F"/>
<path d="M65.6021 17.6797C65.9422 17.6797 66.2267 17.9752 66.2267 18.3284V26.9015C66.2267 27.2546 65.9422 27.5502 65.6021 27.5502H64.9633C64.6375 27.5502 64.38 27.4231 64.1893 27.1556L59.9808 21.6279V26.9015C59.9808 27.2546 59.6962 27.5502 59.3562 27.5502H58.568C58.2279 27.5502 57.9434 27.2546 57.9434 26.9015V18.3284C57.9434 17.9752 58.2279 17.6797 58.568 17.6797H59.2068C59.5326 17.6797 59.7901 17.8068 59.9808 18.0742L64.1893 23.63V18.3284C64.1893 17.9752 64.4739 17.6797 64.8139 17.6797H65.6021Z" fill="#16589F"/>
<path d="M68.5628 25.0978C68.6851 24.8998 68.8473 24.8023 69.065 24.8023C69.2144 24.8023 69.3638 24.8451 69.4862 24.9426C70.125 25.38 70.6941 25.6061 71.1963 25.6061C71.7526 25.6061 72.0927 25.3106 72.0927 24.8451C72.0927 24.0413 70.6671 23.5906 69.526 22.8991C68.752 22.4337 68.1274 21.5456 68.1274 20.3606C68.1274 19.5715 68.412 18.8948 68.9697 18.3436C69.526 17.7939 70.273 17.5117 71.1963 17.5117C72.1197 17.5117 72.8937 17.723 73.5453 18.1604C73.7217 18.2727 73.8028 18.4559 73.8028 18.7101C73.8028 18.8371 73.7758 18.9494 73.7217 19.0484L73.3689 19.669C73.2337 19.8951 73.0573 20.0074 72.8254 20.0074C72.703 20.0074 72.5807 19.9646 72.4583 19.8951C72.1183 19.7119 71.7526 19.6277 71.3856 19.6277C70.788 19.6277 70.4351 19.9099 70.4351 20.3606C70.4351 21.9963 74.4004 21.6018 74.4004 24.817C74.4004 25.6637 74.0874 26.3538 73.477 26.9034C72.8524 27.4531 72.0784 27.722 71.1423 27.722C70.1506 27.722 69.2002 27.3408 68.264 26.5946C68.1288 26.4823 68.0605 26.3124 68.0605 26.1011C68.0605 25.9312 68.1018 25.7908 68.1687 25.6918L68.5628 25.0993V25.0978Z" fill="#16589F"/>
</g>
<defs>
<clipPath id="clip0_9472_20652">
<rect width="90" height="30" fill="white"/>
</clipPath>
</defs>
</svg>
